<?xml version="1.0"?><svg xmlns="http://www.w3.org/2000/svg" width="360" height="360"><rect x="0" y="0" width="100%" height="100%" fill="rgb(108, 92, 231)" /><polyline points="19.8,0,40.2,0,60,19.8,60,40.2,40.2,60,19.8,60,0,40.2,0,19.8,19.8,0" fill="#222" fill-opacity="0.15" stroke="#000" stroke-opacity="0.02" transform="translate(0, 0)" /><polyline points="19.8,0,40.2,0,60,19.8,60,40.2,40.2,60,19.8,60,0,40.2,0,19.8,19.8,0" fill="#ddd" fill-opacity="0.124" stroke="#000" stroke-opacity="0.02" transform="translate(60, 0)" /><polyline points="19.8,0,40.2,0,60,19.8,60,40.2,40.2,60,19.8,60,0,40.2,0,19.8,19.8,0" fill="#ddd" fill-opacity="0.089333333333333" stroke="#000" stroke-opacity="0.02" transform="translate(120, 0)" /><polyline points="19.8,0,40.2,0,60,19.8,60,40.2,40.2,60,19.8,60,0,40.2,0,19.8,19.8,0" fill="#222" fill-opacity="0.13266666666667" stroke="#000" stroke-opacity="0.02" transform="translate(180, 0)" /><polyline points="19.8,0,40.2,0,60,19.8,60,40.2,40.2,60,19.8,60,0,40.2,0,19.8,19.8,0" fill="#222" fill-opacity="0.098" stroke="#000" stroke-opacity="0.02" transform="translate(240, 0)" /><polyline points="19.8,0,40.2,0,60,19.8,60,40.2,40.2,60,19.8,60,0,40.2,0,19.8,19.8,0" fill="#ddd" fill-opacity="0.14133333333333" stroke="#000" stroke-opacity="0.02" transform="translate(300, 0)" /><polyline points="19.8,0,40.2,0,60,19.8,60,40.2,40.2,60,19.8,60,0,40.2,0,19.8,19.8,0" fill="#ddd" fill-opacity="0.072" stroke="#000" stroke-opacity="0.02" transform="translate(0, 60)" /><polyline points="19.8,0,40.2,0,60,19.8,60,40.2,40.2,60,19.8,60,0,40.2,0,19.8,19.8,0" fill="#ddd" fill-opacity="0.14133333333333" stroke="#000" stroke-opacity="0.02" transform="translate(60, 60)" /><polyline points="19.8,0,40.2,0,60,19.8,60,40.2,40.2,60,19.8,60,0,40.2,0,19.8,19.8,0" fill="#222" fill-opacity="0.063333333333333" stroke="#000" stroke-opacity="0.02" transform="translate(120, 60)" /><polyline points="19.8,0,40.2,0,60,19.8,60,40.2,40.2,60,19.8,60,0,40.2,0,19.8,19.8,0" fill="#ddd" fill-opacity="0.089333333333333" stroke="#000" stroke-opacity="0.02" transform="translate(180, 60)" /><polyline points="19.8,0,40.2,0,60,19.8,60,40.2,40.2,60,19.8,60,0,40.2,0,19.8,19.8,0" fill="#222" fill-opacity="0.13266666666667" stroke="#000" stroke-opacity="0.02" transform="translate(240, 60)" /><polyline points="19.8,0,40.2,0,60,19.8,60,40.2,40.2,60,19.8,60,0,40.2,0,19.8,19.8,0" fill="#222" fill-opacity="0.11533333333333" stroke="#000" stroke-opacity="0.02" transform="translate(300, 60)" /><polyline points="19.8,0,40.2,0,60,19.8,60,40.2,40.2,60,19.8,60,0,40.2,0,19.8,19.8,0" fill="#222" fill-opacity="0.080666666666667" stroke="#000" stroke-opacity="0.02" transform="translate(0, 120)" /><polyline points="19.8,0,40.2,0,60,19.8,60,40.2,40.2,60,19.8,60,0,40.2,0,19.8,19.8,0" fill="#ddd" fill-opacity="0.124" stroke="#000" stroke-opacity="0.02" transform="translate(60, 120)" /><polyline points="19.8,0,40.2,0,60,19.8,60,40.2,40.2,60,19.8,60,0,40.2,0,19.8,19.8,0" fill="#ddd" fill-opacity="0.10666666666667" stroke="#000" stroke-opacity="0.02" transform="translate(120, 120)" /><polyline points="19.8,0,40.2,0,60,19.8,60,40.2,40.2,60,19.8,60,0,40.2,0,19.8,19.8,0" fill="#ddd" fill-opacity="0.089333333333333" stroke="#000" stroke-opacity="0.02" transform="translate(180, 120)" /><polyline points="19.8,0,40.2,0,60,19.8,60,40.2,40.2,60,19.8,60,0,40.2,0,19.8,19.8,0" fill="#ddd" fill-opacity="0.072" stroke="#000" stroke-opacity="0.02" transform="translate(240, 120)" /><polyline points="19.8,0,40.2,0,60,19.8,60,40.2,40.2,60,19.8,60,0,40.2,0,19.8,19.8,0" fill="#222" fill-opacity="0.028666666666667" stroke="#000" stroke-opacity="0.02" transform="translate(300, 120)" /><polyline points="19.8,0,40.2,0,60,19.8,60,40.2,40.2,60,19.8,60,0,40.2,0,19.8,19.8,0" fill="#222" fill-opacity="0.13266666666667" stroke="#000" stroke-opacity="0.02" transform="translate(0, 180)" /><polyline points="19.8,0,40.2,0,60,19.8,60,40.2,40.2,60,19.8,60,0,40.2,0,19.8,19.8,0" fill="#ddd" fill-opacity="0.072" stroke="#000" stroke-opacity="0.02" transform="translate(60, 180)" /><polyline points="19.8,0,40.2,0,60,19.8,60,40.2,40.2,60,19.8,60,0,40.2,0,19.8,19.8,0" fill="#ddd" fill-opacity="0.02" stroke="#000" stroke-opacity="0.02" transform="translate(120, 180)" /><polyline points="19.8,0,40.2,0,60,19.8,60,40.2,40.2,60,19.8,60,0,40.2,0,19.8,19.8,0" fill="#222" fill-opacity="0.098" stroke="#000" stroke-opacity="0.02" transform="translate(180, 180)" /><polyline points="19.8,0,40.2,0,60,19.8,60,40.2,40.2,60,19.8,60,0,40.2,0,19.8,19.8,0" fill="#ddd" fill-opacity="0.072" stroke="#000" stroke-opacity="0.02" transform="translate(240, 180)" /><polyline points="19.8,0,40.2,0,60,19.8,60,40.2,40.2,60,19.8,60,0,40.2,0,19.8,19.8,0" fill="#222" fill-opacity="0.13266666666667" stroke="#000" stroke-opacity="0.02" transform="translate(300, 180)" /><polyline points="19.8,0,40.2,0,60,19.8,60,40.2,40.2,60,19.8,60,0,40.2,0,19.8,19.8,0" fill="#ddd" fill-opacity="0.072" stroke="#000" stroke-opacity="0.02" transform="translate(0, 240)" /><polyline points="19.8,0,40.2,0,60,19.8,60,40.2,40.2,60,19.8,60,0,40.2,0,19.8,19.8,0" fill="#ddd" fill-opacity="0.089333333333333" stroke="#000" stroke-opacity="0.02" transform="translate(60, 240)" /><polyline points="19.8,0,40.2,0,60,19.8,60,40.2,40.2,60,19.8,60,0,40.2,0,19.8,19.8,0" fill="#ddd" fill-opacity="0.054666666666667" stroke="#000" stroke-opacity="0.02" transform="translate(120, 240)" /><polyline points="19.8,0,40.2,0,60,19.8,60,40.2,40.2,60,19.8,60,0,40.2,0,19.8,19.8,0" fill="#222" fill-opacity="0.11533333333333" stroke="#000" stroke-opacity="0.02" transform="translate(180, 240)" /><polyline points="19.8,0,40.2,0,60,19.8,60,40.2,40.2,60,19.8,60,0,40.2,0,19.8,19.8,0" fill="#222" fill-opacity="0.13266666666667" stroke="#000" stroke-opacity="0.02" transform="translate(240, 240)" /><polyline points="19.8,0,40.2,0,60,19.8,60,40.2,40.2,60,19.8,60,0,40.2,0,19.8,19.8,0" fill="#ddd" fill-opacity="0.02" stroke="#000" stroke-opacity="0.02" transform="translate(300, 240)" /><polyline points="19.8,0,40.2,0,60,19.8,60,40.2,40.2,60,19.8,60,0,40.2,0,19.8,19.8,0" fill="#222" fill-opacity="0.028666666666667" stroke="#000" stroke-opacity="0.02" transform="translate(0, 300)" /><polyline points="19.8,0,40.2,0,60,19.8,60,40.2,40.2,60,19.8,60,0,40.2,0,19.8,19.8,0" fill="#ddd" fill-opacity="0.072" stroke="#000" stroke-opacity="0.02" transform="translate(60, 300)" /><polyline points="19.8,0,40.2,0,60,19.8,60,40.2,40.2,60,19.8,60,0,40.2,0,19.8,19.8,0" fill="#222" fill-opacity="0.098" stroke="#000" stroke-opacity="0.02" transform="translate(120, 300)" /><polyline points="19.8,0,40.2,0,60,19.8,60,40.2,40.2,60,19.8,60,0,40.2,0,19.8,19.8,0" fill="#222" fill-opacity="0.15" stroke="#000" stroke-opacity="0.02" transform="translate(180, 300)" /><polyline points="19.8,0,40.2,0,60,19.8,60,40.2,40.2,60,19.8,60,0,40.2,0,19.8,19.8,0" fill="#222" fill-opacity="0.15" stroke="#000" stroke-opacity="0.02" transform="translate(240, 300)" /><polyline points="19.8,0,40.2,0,60,19.8,60,40.2,40.2,60,19.8,60,0,40.2,0,19.8,19.8,0" fill="#222" fill-opacity="0.13266666666667" stroke="#000" stroke-opacity="0.02" transform="translate(300, 300)" /></svg>